# AST/ASF file generated using VICON BodyLanguage
# -----------------------------------------------
:version 1.10
:name VICON
:units
  mass 1.0
  length 0.45
  angle deg
:documentation
   .ast/.asf automatically generated from VICON data using
   VICON BodyBuilder and BodyLanguage model FoxedUp or BRILLIANT.MOD
:root
   order TX TY TZ RX RY RZ
   axis XYZ
   position 0 0 0  
   orientation 0 0 0 
:bonedata
  begin
     id 1 
     name lhipjoint
     direction 0.567725 -0.736092 0.368589 
     length 2.42353 
     axis 0 0 0  XYZ
  end
  begin
     id 2 
     name lfemur
     direction 0.34202 -0.939693 0  
     length 7.24894  
     axis 0 0 20  XYZ
    dof rx ry rz
    limits (-160.0 20.0)
           (-70.0 70.0)
           (-60.0 70.0)
  end
  begin
     id 3 
     name ltibia
     direction 0.34202 -0.939693 0   
     length 7.6997   
     axis 0 0 20   XYZ
    dof rx
    limits (-10.0 170.0)
  end
  begin
     id 4 
     name lfoot
     direction 0.100767 -0.276854 0.955614   
     length 2.37556   
     axis -90 7.62852e-016 20   XYZ
    dof rx rz
    limits (-45.0 90.0)
           (-70.0 20.0)
  end
  begin
     id 5 
     name ltoes
     direction 1.53592e-011 -4.21894e-011 1   
     length 1.18363   
     axis -90 7.62852e-016 20   XYZ
    dof rx
    limits (-90.0 20.0)
  end
  begin
     id 6 
     name rhipjoint
     direction -0.556459 -0.742938 0.372017   
     length 2.4012  
     axis 0 0 0  XYZ 
  end
  begin
     id 7 
     name rfemur
     direction -0.34202 -0.939693 0   
     length 7.5119   
     axis 0 0 -20   XYZ
    dof rx ry rz
    limits (-160.0 20.0)
           (-70.0 70.0)
           (-70.0 60.0)
  end
  begin
     id 8 
     name rtibia
     direction -0.34202 -0.939693 0   
     length 7.50155   
     axis 0 0 -20   XYZ
    dof rx
    limits (-10.0 170.0)
 end
 begin
     id 9 
     name rfoot
     direction -0.118427 -0.325376 0.938139   
     length 2.32487  
     axis -90 -7.62852e-016 -20   XYZ
    dof rx rz
    limits (-45.0 90.0)
           (-20.0 70.0)
  end
  begin
     id 10 
     name rtoes
     direction -1.53525e-011 -4.21868e-011 1   
     length 1.15233   
     axis -90 -7.62852e-016 -20   XYZ
    dof rx
    limits (-90.0 20.0)
  end
  begin
     id 11 
     name lowerback
     direction 0.0287568 0.999577 -0.00434502   
     length 2.15243   
     axis 0 0 0   XYZ
    dof rx ry rz
    limits (-20.0 45.0)
           (-30.0 30.0)
           (-30.0 30.0)
  end
  begin
     id 12 
     name upperback
     direction 0.0294009 0.99956 0.00404628   
     length 2.15427   
     axis 0 0 0   XYZ
    dof rx ry rz
    limits (-20.0 45.0)
           (-30.0 30.0)
           (-30.0 30.0)
  end
  begin
     id 13 
     name thorax
     direction 0.0151014 0.999868 0.0059419   
     length 2.14898   
     axis 0 0 0   XYZ
    dof rx ry rz
    limits (-20.0 45.0)
           (-30.0 30.0)
           (-30.0 30.0)
  end
  begin
     id 14 
     name lowerneck
     direction -0.0249197 0.989906 0.139515   
     length 1.6861   
     axis 0 0 0   XYZ
    dof rx ry rz
    limits (-20.0 45.0)
           (-30.0 30.0)
           (-30.0 30.0)
  end
  begin
     id 15 
     name upperneck
     direction 0.0438463 0.988795 -0.142693   
     length 1.71276   
     axis 0 0 0   XYZ
    dof rx ry rz
    limits (-20.0 45.0)
           (-30.0 30.0)
           (-30.0 30.0)
  end
  begin
     id 16
     name head
     direction 0.0148499 0.997845 -0.0639186  
     length 1.7209  
     axis 0 0 0   XYZ
    dof rx ry rz
    limits (-20.0 45.0)
           (-30.0 30.0)
           (-30.0 30.0)
  end
  begin
     id 17 
     name lclavicle
     direction 0.940298 0.323464 -0.105876  
     length 3.9048  
     axis 0 0 0   XYZ
    dof ry rz
    limits (-20.0 10.0)
           (0.0 20.0)
  end
  begin
     id 18 
     name lhumerus
     direction 1 -4.48954e-011 -4.9675e-028   
     length 4.6851   
     axis 180 -30 -90   XYZ
    dof rx ry rz
    limits (-60.0 90.0)
           (-90.0 90.0)
           (-90.0 90.0)
  end
  begin
     id 19
     name lradius
     direction 1 -4.48992e-011 -1.03359e-026   
     length 3.39626   
     axis 180 -30 -90   XYZ
    dof rx
    limits (-10.0 170.0)
  end
  begin
     id 20
     name lwrist
     direction 1 -4.48906e-011 -1.67336e-026   
     length 1.69813   
     axis 9.90442e-015 90 90   XYZ
    dof ry
    limits (-180.0 0.0)
 end
  begin
     id 21 
     name lhand
     direction 1 -4.49006e-011 -3.34673e-026   
     length 0.486078   
     axis 2.1355e-014 90 90   XYZ
    dof rx rz
    limits (-90.0 90.0)
           (-45.0 45.0)
  end
  begin
     id 22 
     name lfingers
     direction 1 -4.48992e-011 -6.69345e-026   
     length 0.391889   
     axis 4.27099e-014 90 90   XYZ
    dof rx
    limits (0.0 90.0)
  end
  begin
     id 23
     name lthumb
     direction 0.707107 -6.34926e-011 0.707107   
     length 0.562676   
     axis -90 45 2.85299e-015   XYZ
    dof rx rz
    limits (-45.0 45.0)
           (-45.0 45.0)
  end
  begin
     id 24 
     name rclavicle
     direction -0.882459 0.414895 -0.221648   
     length 3.44646  
     axis 0 0 0   XYZ 
    dof ry rz
    limits (-10.0 20.0)
           (-20.0 0.0)
  end
  begin
     id 25 
     name rhumerus
     direction -1 -4.48962e-011 -2.37984e-027  
     length 5.55576   
     axis 180 30 90   XYZ
    dof rx ry rz
    limits (-90.0 60.0)
           (-90.0 90.0)
           (-90.0 90.0)
  end
  begin
     id 26 
     name rradius
     direction -1 -4.48982e-011 -6.86791e-027   
     length 3.32774   
     axis 180 30 90   XYZ
    dof rx
    limits (-10.0 170.0)
  end
  begin
     id 27 
     name rwrist
     direction -1 -4.48961e-011 -1.67336e-026   
     length 1.66387   
     axis 9.90442e-015 -90 -90   XYZ
    dof ry
    limits (-180.0 0.0)
  end
  begin
     id 28
     name rhand
     direction -1 -4.4897e-011 -3.34673e-026   
     length 0.507628   
     axis 2.1355e-014 -90 -90   XYZ
    dof rx rz
    limits (-90.0 90.0)
           (-45.0 45.0)
  end
  begin
     id 29
     name rfingers
     direction -1 -4.48854e-011 -6.69345e-026   
     length 0.409263   
     axis 4.27099e-014 -90 -90   XYZ
    dof rx
    limits (0.0 90.0)
  end
  begin
     id 30
     name rthumb
     direction -0.707107 -6.34913e-011 0.707107   
     length 0.587622   
     axis -90 -45 -2.85299e-015   XYZ
    dof rx rz
    limits (-45.0 45.0)
           (-45.0 45.0)
  end
:hierarchy
  begin
    root lhipjoint rhipjoint lowerback
    lhipjoint lfemur
    lfemur ltibia
    ltibia lfoot
    lfoot ltoes
    rhipjoint rfemur
    rfemur rtibia
    rtibia rfoot
    rfoot rtoes
    lowerback upperback
    upperback thorax
    thorax lowerneck lclavicle rclavicle
    lowerneck upperneck
    upperneck head
    lclavicle lhumerus
    lhumerus lradius
    lradius lwrist
    lwrist lhand lthumb
    lhand lfingers
    rclavicle rhumerus
    rhumerus rradius
    rradius rwrist
    rwrist rhand rthumb
    rhand rfingers
  end

#!OML:ASF E:\motion texture\Top Level 1\Subject 1\Session 1\male.ASF
:FULLY-SPECIFIED
:DEGREES
49
root 21.1497 17.5799 5.49707 84.6736 -80.2961 -75.531
lowerback -1.90264 3.10724 7.18451
upperback -1.45329 3.95417 3.03061
thorax -0.161911 1.90186 -0.811107
lowerneck -9.12447 -6.91101 -8.18688
upperneck 4.82886 -8.94782 8.96841
head 3.70013 -4.22076 3.48302
rclavicle 5.71506e-015 -1.09332e-014
rhumerus -34.7585 -6.06502 -81.6243
rradius 25.9837
rwrist 11.6553
rhand -15.1068 -28.2847
rfingers 7.12502
rthumb 11.0617 -57.9732
lclavicle 5.71506e-015 -1.09332e-014
lhumerus -56.7152 32.8505 45.5654
lradius 18.8743
lwrist -35.7194
lhand -13.4875 21.9127
lfingers 7.12502
lthumb 12.6232 51.5112
rfemur 0.717237 5.69168 35.4496
rtibia 16.4637
rfoot -15.7816 -9.86783
rtoes 1.08237
lfemur -33.4919 -3.89018 -2.34259
ltibia 9.92434
lfoot -5.80847 6.80888
ltoes -16.7665
50
root 20.9954 17.5583 5.51339 85.7727 -80.3325 -76.5438
lowerback -1.97351 3.08013 7.19966
upperback -1.46847 3.91141 3.01458
thorax -0.138653 1.88062 -0.833575
lowerneck -9.23608 -6.81808 -8.09264
upperneck 4.97517 -8.82755 8.8749
head 3.74354 -4.15921 3.44415
rclavicle -4.90501e-014 -1.49089e-014
rhumerus -34.5816 -5.81996 -81.5194
rradius 26.2507
rwrist 11.3714
rhand -14.9212 -28.2005
rfingers 7.12502
rthumb 11.2407 -57.8794
lclavicle -4.90501e-014 -1.49089e-014
lhumerus -57.1966 32.9945 45.1812
lradius 18.7745
lwrist -35.9586
lhand -13.5056 21.7714
lfingers 7.12502
lthumb 12.6058 51.3711
rfemur 0.962447 5.64206 35.3545
rtibia 16.8966
rfoot -15.9994 -9.53735
rtoes 0.182617
lfemur -33.5609 -3.9703 -2.31235
ltibia 9.30075
lfoot -6.12676 6.53076
ltoes -16.7285
51
root 20.8411 17.5368 5.53048 86.7457 -80.3651 -77.4543
lowerback -2.01864 3.04252 7.21384
upperback -1.4774 3.85702 3.00043
thorax -0.124379 1.85353 -0.85529
lowerneck -9.34093 -6.72754 -7.99659
upperneck 5.11326 -8.711 8.78385
head 3.78399 -4.09968 3.40583
rclavicle 8.75895e-015 -2.42517e-014
rhumerus -34.3746 -5.57535 -81.4062
rradius 26.5282
rwrist 11.1152
rhand -14.7468 -28.1204
rfingers 7.12502
rthumb 11.409 -57.79
lclavicle 8.75895e-015 -2.42517e-014
lhumerus -57.6161 33.1231 44.8744
lradius 18.6668
lwrist -36.2459
lhand -13.5377 21.5627
lfingers 7.12502
lthumb 12.5748 51.1642
rfemur 1.19341 5.58305 35.2532
rtibia 17.3989
rfoot -16.1917 -9.2081
rtoes -0.829036
lfemur -33.7625 -3.8545 -2.43296
ltibia 9.34634
lfoot -6.29502 6.10313
ltoes -16.5698
52
root 20.6862 17.5159 5.5479 87.5587 -80.3883 -78.2347
lowerback -2.03396 2.998 7.23031
upperback -1.4829 3.79634 2.98674
thorax -0.123623 1.82305 -0.879614
lowerneck -9.42631 -6.64234 -7.89329
upperneck 5.23764 -8.60362 8.69758
head 3.81804 -4.04504 3.36788
rclavicle 5.77718e-015 1.11319e-014
rhumerus -34.1588 -5.35486 -81.2795
rradius 26.8298
rwrist 10.8931
rhand -14.5948 -28.0363
rfingers 7.12502
rthumb 11.5555 -57.6978
lclavicle 5.77718e-015 1.11319e-014
lhumerus -57.9864 33.2679 44.5916
lradius 18.5361
lwrist -36.641
lhand -13.5853 21.2657
lfingers 7.12502
lthumb 12.529 50.8701
rfemur 1.42287 5.5368 35.1617
rtibia 17.962
rfoot -16.3546 -8.90614
rtoes -1.91831
lfemur -34.0588 -3.65637 -2.64614
ltibia 9.96836
lfoot -6.26398 5.62171
ltoes -16.2332
53
root 20.5302 17.4958 5.56576 88.2982 -80.3948 -78.9737
lowerback -2.01185 2.95073 7.25709
upperback -1.49386 3.73593 2.97629
thorax -0.149128 1.79175 -0.908487
lowerneck -9.49104 -6.56482 -7.80272
upperneck 5.36739 -8.5085 8.62913
head 3.85298 -3.99643 3.33698
rclavicle -2.35311e-014 -2.16675e-014
rhumerus -33.9616 -5.16342 -81.1348
rradius 27.17
rwrist 10.7092
rhand -14.3914 -27.9776
rfingers 7.12502
rthumb 11.7516 -57.628
lclavicle -2.35311e-014 -2.16675e-014
lhumerus -58.3155 33.4089 44.3392
lradius 18.3908
lwrist -37.1155
lhand -13.6313 20.9578
lfingers 7.12502
lthumb 12.4846 50.5649
rfemur 1.64812 5.5084 35.0915
rtibia 18.5988
rfoot -16.4908 -8.62994
rtoes -3.06731
lfemur -34.3932 -3.48674 -2.87662
ltibia 11.0118
lfoot -6.03196 5.188
ltoes -15.766
54
root 20.372 17.4767 5.58381 89.0573 -80.3886 -79.7694
lowerback -1.97629 2.91049 7.28758
upperback -1.48884 3.68516 2.97238
thorax -0.16526 1.76582 -0.932568
lowerneck -9.5489 -6.49813 -7.70801
upperneck 5.48268 -8.42803 8.55961
head 3.88356 -3.95533 3.3043
rclavicle -2.06488e-014 7.7526e-015
rhumerus -33.7587 -5.02013 -80.963
rradius 27.5502
rwrist 10.549
rhand -14.1673 -27.9451
rfingers 7.12502
rthumb 11.9678 -57.583
lclavicle -2.06488e-014 7.7526e-015
lhumerus -58.5786 33.5777 44.1255
lradius 18.2236
lwrist -37.6859
lhand -13.6823 20.6572
lfingers 7.12502
lthumb 12.4354 50.2673
rfemur 1.87327 5.50396 35.0431
rtibia 19.3173
rfoot -16.5977 -8.3818
rtoes -4.24431
lfemur -34.7041 -3.41908 -3.07664
ltibia 12.3059
lfoot -5.6161 4.8304
ltoes -15.2149
55
root 20.2114 17.4586 5.60204 89.8922 -80.3716 -80.6796
lowerback -1.92059 2.88094 7.31904
upperback -1.47225 3.64994 2.97367
thorax -0.179968 1.74792 -0.952026
lowerneck -9.60359 -6.44549 -7.61825
upperneck 5.59701 -8.36695 8.49928
head 3.91568 -3.9236 3.27376
rclavicle -7.46685e-015 2.64384e-014
rhumerus -33.5655 -4.93047 -80.7626
rradius 27.9767
rwrist 10.4119
rhand -13.8975 -27.9241
rfingers 7.12502
rthumb 12.2279 -57.5466
lclavicle -7.46685e-015 2.64384e-014
lhumerus -58.8097 33.8279 43.8722
lradius 18.0178
lwrist -38.4232
lhand -13.7369 20.3596
lfingers 7.12502
lthumb 12.3827 49.9728
rfemur 2.10482 5.53389 35.0203
rtibia 20.1099
rfoot -16.6645 -8.17176
rtoes -5.42959
lfemur -34.9509 -3.46398 -3.22691
ltibia 13.695
lfoot -5.00513 4.55738
ltoes -14.6782
